<?xml version="1.0" standalone="no"?>
<!DOCTYPE svg PUBLIC "-//W3C//DTD SVG 20010904//EN"
 "http://www.w3.org/TR/2001/REC-SVG-20010904/DTD/svg10.dtd">
<svg version="1.0" xmlns="http://www.w3.org/2000/svg"
 width="500.000000pt" height="500.000000pt" viewBox="0 0 500.000000 500.000000"
 preserveAspectRatio="xMidYMid meet">
<metadata>
Created by potrace 1.14, written by Peter Selinger 2001-2017
</metadata>
<g transform="translate(0.000000,500.000000) scale(0.100000,-0.100000)"
fill="#000000" stroke="none">
<path d="M1910 4700 c-409 -34 -604 -158 -665 -425 -13 -55 -18 -168 -25 -530
-8 -425 -25 -894 -50 -1405 -6 -113 -19 -401 -30 -640 -11 -239 -25 -497 -31
-572 -14 -171 -7 -402 15 -483 56 -201 190 -320 407 -361 68 -14 123 -15 294
-10 116 3 388 10 605 16 668 17 885 28 987 49 168 35 280 103 356 218 76 115
114 243 124 418 13 247 -51 391 -209 471 -125 63 -165 68 -523 69 -295 1 -327
2 -407 23 -401 100 -537 278 -365 477 92 107 221 129 472 79 181 -35 297 -37
377 -5 123 48 217 174 254 337 23 106 15 340 -14 433 -38 118 -104 192 -228
254 -91 46 -158 52 -412 38 -310 -17 -395 -2 -469 83 -61 68 -67 147 -21 248
35 75 88 132 156 165 52 26 66 28 162 27 58 -1 158 -11 224 -23 253 -45 416
-15 541 100 186 172 204 490 38 670 -113 121 -210 150 -818 239 -226 34 -590
53 -745 40z"/>
</g>
</svg>
